<?xml version="1.0" encoding="iso-8859-1"?>
<svg fill="#fff" height="800px" width="800px" version="1.1" id="Layer_1" xmlns="http://www.w3.org/2000/svg" xmlns:xlink="http://www.w3.org/1999/xlink" 
	 viewBox="0 0 279.711 279.711" xml:space="preserve">
<g>
	<g>
		<g>
			<path d="M209.81,69.955H69.898C31.357,69.955,0,101.312,0,139.853c0,38.544,31.357,69.903,69.898,69.903h139.91
				c38.544,0,69.903-31.357,69.903-69.903C279.71,101.312,248.354,69.955,209.81,69.955z M209.81,194.897H69.898
				c-30.349,0-55.039-24.693-55.039-55.044c0-30.349,24.69-55.039,55.039-55.039h139.91c30.351,0,55.044,24.69,55.044,55.039
				C264.852,170.204,240.159,194.897,209.81,194.897z"/>
			<path d="M65.975,188.146h147.76V91.564H65.975V188.146z M80.834,106.423h118.043v66.864H80.834V106.423z"/>
			<polygon points="46.991,120.635 32.132,120.635 32.132,131.604 21.169,131.604 21.169,146.462 32.132,146.462 32.132,157.431 
				46.991,157.431 46.991,146.462 57.961,146.462 57.961,131.604 46.991,131.604 			"/>
			<circle cx="233.317" cy="126.463" r="10.094"/>
			<circle cx="233.317" cy="152.478" r="10.094"/>
		</g>
	</g>
</g>
</svg>